<svg width="24" height="24" viewBox="0 0 24 24" fill="none" xmlns="http://www.w3.org/2000/svg">
  <!-- Outer circle -->
  <circle cx="12" cy="12" r="11" stroke="currentColor" stroke-width="2"/>
  
  <!-- Inner circle (drum) -->
  <circle cx="12" cy="12" r="7" stroke="currentColor" stroke-width="1.5" fill="none"/>
  
  <!-- Water drops -->
  <path d="M8 8C8 6.5 9 5.5 10 5.5C11 5.5 12 6.5 12 8C12 9.5 10 11 10 11C10 11 8 9.5 8 8Z" fill="currentColor" opacity="0.6"/>
  <path d="M12 8C12 6.5 13 5.5 14 5.5C15 5.5 16 6.5 16 8C16 9.5 14 11 14 11C14 11 12 9.5 12 8Z" fill="currentColor" opacity="0.6"/>
  
  <!-- Center dot -->
  <circle cx="12" cy="12" r="2" fill="currentColor" opacity="0.4"/>
  
  <!-- Control panel indicator -->
  <rect x="10" y="2" width="4" height="1" fill="currentColor" opacity="0.7"/>
</svg>
